<?xml version="1.0" standalone="no"?>
<!DOCTYPE svg PUBLIC "-//W3C//DTD SVG 20010904//EN"
 "http://www.w3.org/TR/2001/REC-SVG-20010904/DTD/svg10.dtd">
<svg version="1.0" xmlns="http://www.w3.org/2000/svg"
 width="840.000000pt" height="592.000000pt" viewBox="0 0 840.000000 592.000000"
 preserveAspectRatio="xMidYMid meet">
<metadata>
Created by potrace 1.15, written by Peter Selinger 2001-2017
</metadata>
<g transform="translate(0.000000,592.000000) scale(0.100000,-0.100000)"
fill="#000000" stroke="none">
<path d="M1825 5335 l-25 -24 0 -591 0 -591 25 -24 24 -25 991 0 991 0 24 25
25 24 0 591 0 591 -25 24 -24 25 -991 0 -991 0 -24 -25z m1895 -615 l0 -480
-880 0 -880 0 0 480 0 480 880 0 880 0 0 -480z"/>
<path d="M2767 4755 c-86 -173 -157 -316 -157 -318 0 -6 140 -71 144 -66 9 9
317 631 314 634 -8 7 -128 65 -135 65 -5 0 -79 -142 -166 -315z"/>
<path d="M2247 4882 c-168 -170 -168 -154 3 -326 l130 -131 57 57 58 58 -90
90 -90 90 93 93 92 93 -53 52 c-29 28 -57 52 -63 52 -5 0 -67 -58 -137 -128z"/>
<path d="M3237 4962 c-26 -26 -47 -52 -47 -57 0 -5 39 -49 87 -97 l88 -88 -90
-90 -90 -90 58 -58 57 -57 130 131 c171 172 171 156 3 326 -70 70 -132 128
-138 128 -6 0 -32 -22 -58 -48z"/>
<path d="M5665 5335 c-18 -18 -25 -35 -25 -65 0 -22 -3 -40 -7 -40 -4 0 -19
12 -35 27 -54 52 -74 42 -225 -110 -152 -151 -162 -171 -110 -225 15 -16 27
-31 27 -35 0 -4 -18 -7 -40 -7 -30 0 -47 -7 -65 -25 -25 -24 -25 -26 -25 -215
0 -189 0 -191 25 -215 18 -18 35 -25 65 -25 22 0 40 -3 40 -7 0 -4 -12 -19
-26 -34 -16 -16 -26 -39 -26 -59 -1 -28 15 -48 135 -168 151 -151 171 -161
225 -109 16 15 31 27 35 27 4 0 7 -18 7 -40 0 -30 7 -47 25 -65 24 -25 26 -25
215 -25 189 0 191 0 215 25 18 18 25 35 25 65 0 22 3 40 7 40 4 0 19 -12 35
-27 54 -52 74 -42 223 108 78 78 137 145 140 160 5 21 0 34 -24 62 -17 19 -31
37 -31 41 0 3 18 6 40 6 30 0 47 7 65 25 25 24 25 26 25 215 0 189 0 191 -25
215 -18 18 -35 25 -65 25 -22 0 -40 3 -40 7 0 4 12 19 27 35 52 54 42 74 -110
225 -151 152 -171 162 -225 110 -16 -15 -31 -27 -35 -27 -4 0 -7 18 -7 40 0
30 -7 47 -25 65 -24 25 -26 25 -215 25 -189 0 -191 0 -215 -25z m295 -159 c0
-38 30 -65 109 -97 76 -30 100 -31 134 -1 17 15 22 12 74 -40 l56 -56 -22 -27
c-27 -35 -27 -39 8 -127 32 -78 59 -108 97 -108 23 0 24 -2 24 -80 0 -78 -1
-80 -24 -80 -38 0 -65 -30 -97 -109 -30 -76 -31 -100 -1 -134 15 -17 12 -22
-41 -74 -52 -53 -57 -56 -74 -41 -34 30 -58 29 -134 -1 -79 -32 -109 -59 -109
-97 0 -23 -2 -24 -80 -24 -78 0 -80 1 -80 24 0 38 -30 65 -108 97 -88 35 -92
35 -127 8 l-27 -22 -56 56 c-52 52 -55 57 -40 74 30 34 29 58 -1 134 -32 79
-59 109 -97 109 -23 0 -24 2 -24 80 0 78 1 80 24 80 38 0 65 30 96 107 31 76
31 104 3 135 -16 18 -15 21 39 75 l56 56 27 -22 c36 -27 42 -27 128 9 78 33
107 59 107 96 0 23 2 24 80 24 78 0 80 -1 80 -24z"/>
<path d="M5775 4943 c-229 -95 -288 -361 -117 -531 65 -65 120 -87 222 -87 70
0 94 4 135 24 63 32 124 93 156 156 33 68 34 197 2 267 -27 60 -95 127 -158
158 -65 32 -181 38 -240 13z m180 -166 c112 -64 109 -219 -5 -277 -22 -11 -53
-20 -70 -20 -43 0 -104 33 -132 72 -34 49 -33 132 4 180 52 68 131 86 203 45z"/>
<path d="M4120 4200 l0 -120 80 0 80 0 0 120 0 120 -80 0 -80 0 0 -120z"/>
<path d="M4745 3860 l-120 -120 58 -57 57 -58 115 115 c63 63 115 119 115 125
0 6 -24 34 -53 63 l-52 52 -120 -120z"/>
<path d="M3477 3917 l-58 -52 118 -117 c65 -65 123 -118 129 -118 13 0 104 92
104 106 0 9 -221 234 -230 234 -3 -1 -31 -24 -63 -53z"/>
<path d="M2200 3840 l0 -80 80 0 80 0 0 80 0 80 -80 0 -80 0 0 -80z"/>
<path d="M6040 3760 l0 -80 80 0 80 0 0 80 0 80 -80 0 -80 0 0 -80z"/>
<path d="M4120 3753 c-94 -16 -170 -54 -244 -123 -108 -100 -149 -196 -150
-350 -1 -117 12 -166 69 -256 l33 -51 -164 -97 c-90 -53 -168 -104 -173 -114
-5 -9 -26 -77 -46 -149 l-38 -133 -99 0 c-92 0 -101 -2 -123 -25 -31 -30 -31
-30 -5 -375 24 -330 27 -368 45 -618 8 -111 19 -211 25 -222 6 -11 19 -24 30
-30 26 -14 1814 -14 1840 0 11 6 24 19 30 30 8 16 27 234 55 640 7 103 15 215
20 275 2 28 7 100 11 162 7 110 7 111 -19 137 -25 24 -32 26 -125 26 l-99 0
-38 133 c-21 72 -42 140 -47 149 -5 10 -82 61 -172 114 l-164 97 33 51 c44 70
66 137 72 226 11 147 -32 257 -141 366 -73 73 -143 114 -227 133 -43 10 -140
12 -189 4z m231 -194 c110 -59 163 -148 163 -274 0 -65 -4 -90 -25 -136 -46
-98 -123 -157 -236 -179 -137 -27 -272 41 -340 173 -23 44 -27 65 -27 132 0
158 84 270 233 312 72 20 161 9 232 -28z m-325 -726 c53 -25 69 -28 169 -28
76 1 122 6 150 17 22 9 54 21 70 28 29 12 37 8 192 -85 l162 -97 20 -66 c11
-37 23 -79 26 -94 l7 -28 -621 0 c-585 0 -621 1 -620 18 0 9 13 52 27 95 l27
78 155 94 c85 51 160 94 166 94 7 1 38 -11 70 -26z m1044 -535 c0 -13 -5 -81
-10 -153 -5 -71 -19 -263 -30 -425 -11 -162 -23 -310 -26 -327 l-5 -33 -799 0
-800 0 -4 23 c-4 18 -67 906 -66 930 0 4 392 7 870 7 l870 0 0 -22z"/>
<path d="M4040 1840 l0 -80 160 0 160 0 0 80 0 80 -160 0 -160 0 0 -80z"/>
<path d="M2200 3520 l0 -80 80 0 80 0 0 80 0 80 -80 0 -80 0 0 -80z"/>
<path d="M6040 3440 l0 -80 80 0 80 0 0 80 0 80 -80 0 -80 0 0 -80z"/>
<path d="M2200 3200 l0 -80 80 0 80 0 0 80 0 80 -80 0 -80 0 0 -80z"/>
<path d="M6040 3120 l0 -80 80 0 80 0 0 80 0 80 -80 0 -80 0 0 -80z"/>
<path d="M2200 2800 l0 -80 80 0 80 0 0 80 0 80 -80 0 -80 0 0 -80z"/>
<path d="M6040 2800 l0 -80 80 0 80 0 0 80 0 80 -80 0 -80 0 0 -80z"/>
<path d="M2200 2480 l0 -80 80 0 80 0 0 80 0 80 -80 0 -80 0 0 -80z"/>
<path d="M6040 2480 l0 -80 80 0 80 0 0 80 0 80 -80 0 -80 0 0 -80z"/>
<path d="M2200 2160 l0 -80 80 0 80 0 0 80 0 80 -80 0 -80 0 0 -80z"/>
<path d="M6040 2160 l0 -80 80 0 80 0 0 80 0 80 -80 0 -80 0 0 -80z"/>
<path d="M2200 1840 l0 -80 80 0 80 0 0 80 0 80 -80 0 -80 0 0 -80z"/>
<path d="M2520 1840 l0 -80 80 0 80 0 0 80 0 80 -80 0 -80 0 0 -80z"/>
<path d="M2840 1840 l0 -80 80 0 80 0 0 80 0 80 -80 0 -80 0 0 -80z"/>
<path d="M5400 1840 l0 -80 80 0 80 0 0 80 0 80 -80 0 -80 0 0 -80z"/>
<path d="M5720 1840 l0 -80 80 0 80 0 0 80 0 80 -80 0 -80 0 0 -80z"/>
<path d="M6040 1840 l0 -80 80 0 80 0 0 80 0 80 -80 0 -80 0 0 -80z"/>
<path d="M1825 1015 c-25 -24 -25 -26 -25 -215 0 -189 0 -191 25 -215 l24 -25
2351 0 2351 0 24 25 c25 24 25 26 25 215 0 189 0 191 -25 215 l-24 25 -2351 0
-2351 0 -24 -25z m4615 -215 l0 -80 -2240 0 -2240 0 0 80 0 80 2240 0 2240 0
0 -80z"/>
</g>
</svg>
